# xmcd CD database file
#
# Track frame offsets:
#	150
#	11668
#	23534
#	32140
#	43413
#	54106
#	66590
#	76354
#	87920
#	98509
#	110055
#	120462
#	135311
#	148737
#	160076
#	172645
#	185852
#	197876
#	212200
#	224923
#	237409
#	249305
#
# Disc length: 3460 seconds
#
# Revision: 0
# Processed by: cddbd v1.4PL0 Copyright (c) Steve Scherf et al.
# Submitted via: CDex 1.40Release
#
DISCID=3a0d8216
DTITLE=Don Gibson - Blue Blue Day
DYEAR=2001
DGENRE=Country
TTITLE0=Sweet Dreams
TTITLE1=I Can't Stop Loving You
TTITLE2=Blue Blue Day
TTITLE3=Give Myself A Party
TTITLE4=Who Cares
TTITLE5=Just One Time
TTITLE6=Far, Far Aeay
TTITLE7=Sea Of Heartbreak
TTITLE8=Lonesome Number One
TTITLE9=I Can Mend Your Broken Heart
TTITLE10=Country Green
TTITLE11=Woman (Sensuous Woman)
TTITLE12=Touch The Morning
TTITLE13=One Day At A Time
TTITLE14=The Sons Of The Soil - I Lost My Love
TTITLE15=The Sons Of The Soil - Why Am I So Lonely
TTITLE16=The Sons Of The Soil - Automatic Mama
TTITLE17=The Sons Of The Soil - Cloudy Skies
TTITLE18=Don Gibson and His King Cotton Kingfolks - I Love No One But You
TTITLE19=Don Gibson and His King Cotton Kingfolks - Caroline Breakdown
TTITLE20=Don Gibson and His King Cotton Kingfolks - Roses Are Red
TTITLE21=Don Gibson and His King Cotton Kingfolks - Wiggle Wag
EXTD=YEAR: 2001 ID3G: 2
EXTT0=
EXTT1=
EXTT2=
EXTT3=
EXTT4=
EXTT5=
EXTT6=
EXTT7=
EXTT8=
EXTT9=
EXTT10=
EXTT11=
EXTT12=
EXTT13=
EXTT14=
EXTT15=
EXTT16=
EXTT17=
EXTT18=
EXTT19=
EXTT20=
EXTT21=
PLAYORDER=
